<svg xmlns="http://www.w3.org/2000/svg" xmlns:xlink="http://www.w3.org/1999/xlink" width="671.601" height="422.719" viewBox="0 0 671.601 422.719">
  <defs>
    <linearGradient id="linear-gradient" x1="0.741" y1="-0.22" x2="0.249" y2="1.03" gradientUnits="objectBoundingBox">
      <stop offset="0" stop-color="#63380e"/>
      <stop offset="0.231" stop-color="#c38f24"/>
      <stop offset="0.409" stop-color="#fff9ca"/>
      <stop offset="0.446" stop-color="#f7ecba"/>
      <stop offset="0.646" stop-color="#d2ad6d"/>
      <stop offset="0.812" stop-color="#b77f35"/>
      <stop offset="0.934" stop-color="#a66212"/>
      <stop offset="1" stop-color="#a05805"/>
    </linearGradient>
    <linearGradient id="linear-gradient-2" x1="1.009" y1="0.069" x2="0.029" y2="0.912" gradientUnits="objectBoundingBox">
      <stop offset="0.007" stop-color="#b48426"/>
      <stop offset="0.166" stop-color="#f3e08d"/>
      <stop offset="0.234" stop-color="#dbb758"/>
      <stop offset="0.292" stop-color="#c99a32"/>
      <stop offset="0.322" stop-color="#c38f24"/>
      <stop offset="0.389" stop-color="#bb7e22"/>
      <stop offset="0.466" stop-color="#b57122"/>
      <stop offset="0.493" stop-color="#ba7b2f"/>
      <stop offset="0.543" stop-color="#ca9752"/>
      <stop offset="0.611" stop-color="#e3c58a"/>
      <stop offset="0.679" stop-color="#fff9ca"/>
      <stop offset="0.861" stop-color="#c38f24"/>
      <stop offset="1" stop-color="#63380e"/>
    </linearGradient>
    <linearGradient id="linear-gradient-3" x1="0.73" y1="-0.316" x2="0.285" y2="1.373" gradientUnits="objectBoundingBox">
      <stop offset="0" stop-color="#f3e08d"/>
      <stop offset="0.166" stop-color="#c59227"/>
      <stop offset="0.278" stop-color="#c38f24"/>
      <stop offset="0.292" stop-color="#c08a21"/>
      <stop offset="0.423" stop-color="#a8650c"/>
      <stop offset="0.493" stop-color="#a05805"/>
      <stop offset="0.517" stop-color="#a66212"/>
      <stop offset="0.562" stop-color="#b77f35"/>
      <stop offset="0.623" stop-color="#d2ad6d"/>
      <stop offset="0.696" stop-color="#f7ecba"/>
      <stop offset="0.71" stop-color="#fff9ca"/>
      <stop offset="0.861" stop-color="#c38f24"/>
    </linearGradient>
    <linearGradient id="linear-gradient-4" x1="0.539" y1="0.048" x2="0.461" y2="0.952" gradientUnits="objectBoundingBox">
      <stop offset="0.085" stop-color="#f3e08d"/>
      <stop offset="0.161" stop-color="#dbb758"/>
      <stop offset="0.227" stop-color="#c99a32"/>
      <stop offset="0.261" stop-color="#c38f24"/>
      <stop offset="0.338" stop-color="#bb7e22"/>
      <stop offset="0.425" stop-color="#b57122"/>
      <stop offset="0.457" stop-color="#ba7b2f"/>
      <stop offset="0.517" stop-color="#ca9752"/>
      <stop offset="0.598" stop-color="#e3c58a"/>
      <stop offset="0.679" stop-color="#fff9ca"/>
      <stop offset="0.861" stop-color="#c38f24"/>
      <stop offset="1" stop-color="#63380e"/>
    </linearGradient>
    <linearGradient id="linear-gradient-5" x1="11.677" y1="-10.674" x2="11.759" y2="-9.735" gradientUnits="objectBoundingBox">
      <stop offset="0.164" stop-color="#a05805"/>
      <stop offset="0.212" stop-color="#a66212"/>
      <stop offset="0.303" stop-color="#b77f35"/>
      <stop offset="0.426" stop-color="#d2ad6d"/>
      <stop offset="0.574" stop-color="#f7ecba"/>
      <stop offset="0.601" stop-color="#fff9ca"/>
      <stop offset="1" stop-color="#c38f24"/>
    </linearGradient>
    <linearGradient id="linear-gradient-6" x1="0.794" y1="0.306" x2="1.275" y2="-1.068" xlink:href="#linear-gradient-3"/>
    <linearGradient id="linear-gradient-7" x1="1.094" y1="-1.375" x2="1.125" y2="-0.352" gradientUnits="objectBoundingBox">
      <stop offset="0" stop-color="#89540f"/>
      <stop offset="0.118" stop-color="#8f550b"/>
      <stop offset="0.266" stop-color="#a05805"/>
      <stop offset="0.312" stop-color="#a66212"/>
      <stop offset="0.399" stop-color="#b77f35"/>
      <stop offset="0.517" stop-color="#d2ad6d"/>
      <stop offset="0.66" stop-color="#f7ecba"/>
      <stop offset="0.686" stop-color="#fff9ca"/>
      <stop offset="0.841" stop-color="#c38f24"/>
      <stop offset="1" stop-color="#63380e"/>
    </linearGradient>
    <linearGradient id="linear-gradient-8" x1="1.185" y1="-0.609" x2="1.31" y2="-2.036" gradientUnits="objectBoundingBox">
      <stop offset="0" stop-color="#63380e"/>
      <stop offset="0.139" stop-color="#c38f24"/>
      <stop offset="0.321" stop-color="#fff9ca"/>
      <stop offset="0.402" stop-color="#e3c58a"/>
      <stop offset="0.483" stop-color="#ca9752"/>
      <stop offset="0.543" stop-color="#ba7b2f"/>
      <stop offset="0.575" stop-color="#b57122"/>
      <stop offset="0.662" stop-color="#bb7e22"/>
      <stop offset="0.739" stop-color="#c38f24"/>
      <stop offset="0.773" stop-color="#c99a32"/>
      <stop offset="0.839" stop-color="#dbb758"/>
      <stop offset="0.915" stop-color="#f3e08d"/>
    </linearGradient>
    <linearGradient id="linear-gradient-9" x1="0.5" x2="0.5" y2="1" gradientUnits="objectBoundingBox">
      <stop offset="0" stop-color="#4e9cff"/>
      <stop offset="0.984" stop-color="#176ad4"/>
    </linearGradient>
  </defs>
  <g id="Group_44877" data-name="Group 44877" transform="translate(-418.802 -389.901)">
    <g id="Group_23145" data-name="Group 23145" transform="translate(420.078 503.157) rotate(1)">
      <path id="Path_41200" data-name="Path 41200" d="M48.207,3.268S19.586,14.129,0,0A20.834,20.834,0,0,0,1.814,3.086c18.371,25.972,60.9,10.839,60.9,10.839Z" transform="translate(133.983 158.09)" fill="url(#linear-gradient)"/>
      <path id="Path_41201" data-name="Path 41201" d="M63.446,13.8C62.346,6.417,58.373,2.093,52.907,0c.219.775.409,1.584.565,2.437,4.7,25.718-71.632,51.77-49.405,86.349A22.8,22.8,0,0,0,5.676,90.9l-.007.012L15.5,102.144a34.8,34.8,0,0,1-3.278-5.076c-.053-.124-.122-.276-.2-.448C-.288,68.869,68.659,48.8,63.446,13.8Z" transform="translate(121.757 61.024)" fill="url(#linear-gradient-2)"/>
      <path id="Path_41202" data-name="Path 41202" d="M101.46,6.188l-.088.038a14.793,14.793,0,0,0-1.254-1.131C89.4-3.5,68.747-1.277,43.41,12.171q-5.421,2.875-11.1,6.436C23.645,24.038,7.669,24.521,0,18.674c9.183,7.676,27.471,18.488,42.279,11.3,4.727-2.295,9.432-4.476,14.044-6.47,19.992-8.645,38.267-13.784,49.372-9.53a20.461,20.461,0,0,1,5.466,3.408Z" transform="translate(68.97 47.048)" fill="url(#linear-gradient-3)"/>
      <path id="Path_41203" data-name="Path 41203" d="M79.7,73.117S72.4,67.134,69.493,64.155C53.113,47.324,38.863,18.2,34.2,6.7L0,0C5.5,13.574,25.231,42.319,59.3,62.416,63.851,65.1,79.7,73.117,79.7,73.117Z" fill="url(#linear-gradient-4)"/>
    </g>
    <g id="Group_36214" data-name="Group 36214" transform="translate(590.133 389.901)">
      <g id="Group_23143" data-name="Group 23143" transform="translate(243.249 202.376) rotate(12.007)">
        <path id="Path_41183" data-name="Path 41183" d="M0,0C9.511,5.984,5,21.83,4.826,20.987l12.838-1.481C18.336,15.284,16.667,1.872,0,0Z" transform="translate(245.538 2.445)" fill="url(#linear-gradient-5)"/>
        <path id="Path_41184" data-name="Path 41184" d="M53.344,6.135C34.8,18.943,22.066,61.987,0,52.642c46.838,15.99,45.933-27.1,67.383-43.831C75.445,2.525,86.06.923,94.042,3.795,88.278,1.365,68.681-4.456,53.344,6.135Z" transform="translate(157.486 0)" fill="url(#linear-gradient-6)"/>
        <path id="Path_41185" data-name="Path 41185" d="M0,0C9.443,2.81,14.763,8.915,26.785,16.634c30.3,19.454,42.948,15.589,55.938,14.787-7.9-.845-25.567-8.539-32.274-12.869C29.894,5.3,13.212.4,0,0Z" transform="translate(72.775 24.719)" fill="url(#linear-gradient-7)"/>
        <path id="Path_41186" data-name="Path 41186" d="M0,19.95l18.32,3.113C20.929,17.938,43.752.106,67.582,3.44,21.755-8.427,3.171,13.724,0,19.95Z" transform="translate(0 22.112)" fill="url(#linear-gradient-8)"/>
      </g>
      <g id="Group_27880" data-name="Group 27880" transform="translate(0 0)">
        <rect id="Rectangle_5596" data-name="Rectangle 5596" width="357.567" height="304.808" rx="10" transform="translate(0 0)" fill="#fff"/>
        <rect id="Rectangle_5597" data-name="Rectangle 5597" width="357.567" height="33.823" rx="6" transform="translate(0 0)" fill="#5c9cf4"/>
        <g id="Group_27872" data-name="Group 27872" transform="translate(14.459 12.664)">
          <path id="Path_81108" data-name="Path 81108" d="M106.131,85.7a4.044,4.044,0,1,1,4.045,4.043A4.044,4.044,0,0,1,106.131,85.7Z" transform="translate(-106.131 -81.657)" fill="#dae6ff"/>
          <path id="Path_81109" data-name="Path 81109" d="M120.844,85.7a4.043,4.043,0,1,1,4.043,4.043A4.043,4.043,0,0,1,120.844,85.7Z" transform="translate(-103.871 -81.657)" fill="#dae6ff"/>
          <path id="Path_81110" data-name="Path 81110" d="M135.556,85.7a4.043,4.043,0,1,1,4.043,4.043A4.043,4.043,0,0,1,135.556,85.7Z" transform="translate(-101.611 -81.657)" fill="#dae6ff"/>
        </g>
        <rect id="Rectangle_5598" data-name="Rectangle 5598" width="101.359" height="101.358" transform="translate(28.337 60.66)" fill="#c8dffd" opacity="0.5"/>
        <path id="Path_81111" data-name="Path 81111" d="M311.046,130.831H230.423a3.83,3.83,0,0,1-3.831-3.83h0a3.831,3.831,0,0,1,3.831-3.831h80.623a3.83,3.83,0,0,1,3.83,3.831h0A3.829,3.829,0,0,1,311.046,130.831Z" transform="translate(-73.167 -62.616)" fill="#7798f8" opacity="0.5"/>
        <path id="Path_81112" data-name="Path 81112" d="M394.618,126.378H314a3.83,3.83,0,0,1-3.83-3.831h0a3.829,3.829,0,0,1,3.83-3.83h80.623a3.829,3.829,0,0,1,3.83,3.83h0A3.83,3.83,0,0,1,394.618,126.378Z" transform="translate(-60.33 -63.3)" fill="#7798f8" opacity="0.5"/>
        <g id="Group_27873" data-name="Group 27873" transform="translate(153.425 92.739)" opacity="0.3">
          <path id="Path_81113" data-name="Path 81113" d="M327,156.034H229.076a2.484,2.484,0,0,1-2.484-2.483h0a2.483,2.483,0,0,1,2.484-2.483H327a2.482,2.482,0,0,1,2.483,2.483h0A2.483,2.483,0,0,1,327,156.034Z" transform="translate(-226.592 -151.069)" fill="#b8d0fc"/>
          <path id="Path_81114" data-name="Path 81114" d="M349.678,156.034H323.827a2.483,2.483,0,0,1-2.483-2.483h0a2.483,2.483,0,0,1,2.483-2.483h25.851a2.482,2.482,0,0,1,2.483,2.483h0A2.483,2.483,0,0,1,349.678,156.034Z" transform="translate(-212.037 -151.069)" fill="#b8d0fc"/>
          <path id="Path_81115" data-name="Path 81115" d="M266.025,169.382H229.076a2.484,2.484,0,0,1-2.484-2.484h0a2.484,2.484,0,0,1,2.484-2.483h36.949a2.483,2.483,0,0,1,2.482,2.483h0A2.483,2.483,0,0,1,266.025,169.382Z" transform="translate(-226.592 -149.019)" fill="#b8d0fc"/>
          <path id="Path_81116" data-name="Path 81116" d="M319.726,169.382H269.095a2.483,2.483,0,0,1-2.483-2.484h0a2.483,2.483,0,0,1,2.483-2.483h50.631a2.483,2.483,0,0,1,2.483,2.483h0A2.483,2.483,0,0,1,319.726,169.382Z" transform="translate(-220.445 -149.019)" fill="#b8d0fc"/>
          <path id="Path_81117" data-name="Path 81117" d="M349.678,169.382H323.827a2.484,2.484,0,0,1-2.483-2.484h0a2.483,2.483,0,0,1,2.483-2.483h25.851a2.483,2.483,0,0,1,2.483,2.483h0A2.483,2.483,0,0,1,349.678,169.382Z" transform="translate(-212.037 -149.019)" fill="#b8d0fc"/>
          <path id="Path_81118" data-name="Path 81118" d="M279.212,180.923H229.076a2.484,2.484,0,0,1-2.484-2.483h0a2.483,2.483,0,0,1,2.484-2.483h50.136a2.483,2.483,0,0,1,2.484,2.483h0A2.483,2.483,0,0,1,279.212,180.923Z" transform="translate(-226.592 -147.246)" fill="#b8d0fc"/>
          <path id="Path_81119" data-name="Path 81119" d="M366.448,180.923h-82a2.483,2.483,0,0,1-2.483-2.483h0a2.482,2.482,0,0,1,2.483-2.483h82a2.483,2.483,0,0,1,2.483,2.483h0A2.483,2.483,0,0,1,366.448,180.923Z" transform="translate(-218.086 -147.246)" fill="#b8d0fc"/>
        </g>
        <g id="Group_27874" data-name="Group 27874" transform="translate(153.425 141.655)" opacity="0.3">
          <path id="Path_81120" data-name="Path 81120" d="M327,198.437H229.076a2.483,2.483,0,0,1-2.484-2.483h0a2.483,2.483,0,0,1,2.484-2.483H327a2.482,2.482,0,0,1,2.483,2.483h0A2.482,2.482,0,0,1,327,198.437Z" transform="translate(-226.592 -193.472)" fill="#b8d0fc"/>
          <path id="Path_81121" data-name="Path 81121" d="M349.678,198.437H323.827a2.483,2.483,0,0,1-2.483-2.483h0a2.483,2.483,0,0,1,2.483-2.483h25.851a2.482,2.482,0,0,1,2.483,2.483h0A2.482,2.482,0,0,1,349.678,198.437Z" transform="translate(-212.037 -193.472)" fill="#b8d0fc"/>
          <path id="Path_81122" data-name="Path 81122" d="M266.025,211.785H229.076a2.484,2.484,0,0,1-2.484-2.483h0a2.483,2.483,0,0,1,2.484-2.483h36.949a2.482,2.482,0,0,1,2.482,2.483h0A2.483,2.483,0,0,1,266.025,211.785Z" transform="translate(-226.592 -191.422)" fill="#b8d0fc"/>
          <path id="Path_81123" data-name="Path 81123" d="M319.726,211.785H269.095a2.483,2.483,0,0,1-2.483-2.483h0a2.482,2.482,0,0,1,2.483-2.483h50.631a2.482,2.482,0,0,1,2.483,2.483h0A2.483,2.483,0,0,1,319.726,211.785Z" transform="translate(-220.445 -191.422)" fill="#b8d0fc"/>
        </g>
        <g id="Group_27875" data-name="Group 27875" transform="translate(45.502 75.769)">
          <path id="Path_81124" data-name="Path 81124" d="M161.321,136.359h10.468l28.281,64.735H188.133l-6.52-15.518H151.221l-6.611,15.518H133.04Zm16.161,39.208-11.11-25.709-11.019,25.709Z" transform="translate(-133.04 -136.359)" fill="#b8d0fc"/>
        </g>
        <g id="Group_27876" data-name="Group 27876" transform="translate(28.337 182.436)">
          <rect id="Rectangle_5599" data-name="Rectangle 5599" width="56.62" height="10.931" fill="#ff912b"/>
          <rect id="Rectangle_5600" data-name="Rectangle 5600" width="56.62" height="10.931" transform="translate(0 10.931)" fill="#fc7600"/>
          <rect id="Rectangle_5601" data-name="Rectangle 5601" width="56.62" height="10.93" transform="translate(0 21.862)" fill="#4b49f2"/>
        </g>
        <g id="Group_27877" data-name="Group 27877" transform="translate(93.161 183.903)">
          <path id="Path_81125" data-name="Path 81125" d="M207.867,234.815H176.713a2.36,2.36,0,0,1-2.36-2.36h0a2.36,2.36,0,0,1,2.36-2.36h31.153a2.36,2.36,0,0,1,2.36,2.36h0A2.36,2.36,0,0,1,207.867,234.815Z" transform="translate(-174.353 -230.094)" fill="#b8d0fc"/>
          <path id="Path_81126" data-name="Path 81126" d="M197.371,242.028H176.713a2.36,2.36,0,0,1-2.36-2.36h0a2.36,2.36,0,0,1,2.36-2.36h20.658a2.36,2.36,0,0,1,2.36,2.36h0A2.36,2.36,0,0,1,197.371,242.028Z" transform="translate(-174.353 -228.986)" fill="#b8d0fc"/>
        </g>
        <g id="Group_27878" data-name="Group 27878" transform="translate(28.337 238.952)">
          <rect id="Rectangle_5602" data-name="Rectangle 5602" width="56.62" height="22.335" fill="#ff912b"/>
          <rect id="Rectangle_5603" data-name="Rectangle 5603" width="56.62" height="15.973" transform="translate(0 16.819)" fill="#c23b35"/>
          <path id="Path_81127" data-name="Path 81127" d="M118.161,277.813l20.312,17.062-20.312,15.731Z" transform="translate(-118.161 -277.813)" fill="#4b49f2"/>
        </g>
        <g id="Group_27879" data-name="Group 27879" transform="translate(93.161 240.419)">
          <path id="Path_81128" data-name="Path 81128" d="M207.867,283.806H176.713a2.36,2.36,0,0,1-2.36-2.36h0a2.36,2.36,0,0,1,2.36-2.36h31.153a2.36,2.36,0,0,1,2.36,2.36h0A2.36,2.36,0,0,1,207.867,283.806Z" transform="translate(-174.353 -279.085)" fill="#b8d0fc"/>
          <path id="Path_81129" data-name="Path 81129" d="M197.371,291.018H176.713a2.359,2.359,0,0,1-2.36-2.36h0a2.361,2.361,0,0,1,2.36-2.36h20.658a2.361,2.361,0,0,1,2.36,2.36h0A2.36,2.36,0,0,1,197.371,291.018Z" transform="translate(-174.353 -277.977)" fill="#b8d0fc"/>
        </g>
      </g>
    </g>
    <g id="Group_44826" data-name="Group 44826" transform="translate(704.604 409.062)">
      <path id="Path_105955" data-name="Path 105955" d="M2268.7,1010.751a22.03,22.03,0,0,0-3.761-4.021c-2.005-1.546-4.119-4.445-3.5-5.385s6.643-5.362,6.643-5.362l3.208,7.94Z" transform="translate(-2242.879 -897.363)" fill="#ffb27d"/>
      <path id="Path_105956" data-name="Path 105956" d="M2387.527,806.953l52.421-20.775,29.322,28.272-49.829,19.436Z" transform="translate(-2309.758 -786.179)" fill="#233862"/>
      <path id="Path_105957" data-name="Path 105957" d="M2300.358,1038.437l-20.869-26.8-2.482,7.41s21.377,48.614,31.167,44.092C2312.738,1061.03,2300.358,1038.437,2300.358,1038.437Z" transform="translate(-2251.189 -905.658)" fill="#ffb27d"/>
      <path id="Path_105958" data-name="Path 105958" d="M2434.43,858.437s-10.183,6-3.935,17.622c0,0-8.915-1.632-10.841-4.294a7.03,7.03,0,0,0,.554,1.668s-10.447-1.327-12.373-5.222c-3.971-8.028,5.663-7.526,9.828-15.862,5.44-10.891,13.979-19.449,26.048-13.438,0,0,16.879-.921,9.249,20.709s-.42,23.54-.42,23.54a10.611,10.611,0,0,1-3.236.2s-1.272-.914-1.344-1.771a5.213,5.213,0,0,0,.214,1.791s-7.98-1.324-11.089-5.291S2432.113,862.7,2434.43,858.437Z" transform="translate(-2320.022 -813.072)" fill="#c94c43"/>
      <path id="Path_105959" data-name="Path 105959" d="M2434.107,956.771l-.036.014C2434.007,956.775,2434.021,956.771,2434.107,956.771Z" transform="translate(-2334.403 -876.583)" fill="#ffb27d"/>
      <path id="Path_105960" data-name="Path 105960" d="M2458.943,921.4c.3,2.682.657,5.087.815,6.233.115.823,1.971,15.45-1.429,15.6s-11.8,17.481-15.582,17.34c-4.238-.158-8-32.042-8.555-32.043,1.083-.471,4.39-10.958,5.436-14.957,1.269-4.852,2.265-10.093,2.265-10.093l17.209,1.087,1.023.064a59.957,59.957,0,0,0-1.4,6.618c-.041.276-.082.557-.117.829A44.625,44.625,0,0,0,2458.943,921.4Z" transform="translate(-2334.488 -848.342)" fill="#ffb27d"/>
      <path id="Path_105961" data-name="Path 105961" d="M2442.931,866.928s-2.789-8.848-2.225-15.633c.4-4.844,8.124-18.582,24.7-11.551,0,0,4.049-.967,7.913,3.455,3.072,3.518,7.028,10.4-2.971,23.768l-2.906,4.64Z" transform="translate(-2337.9 -813.525)" fill="#c94c43"/>
      <path id="Path_105962" data-name="Path 105962" d="M2467.518,921.96c-12.038-3.526-17.146-17.432-17.146-17.432,5.092.15,11.724,3.684,16.928,7.276-.041.276-.082.557-.117.829A44.625,44.625,0,0,0,2467.518,921.96Z" transform="translate(-2343.062 -848.897)" fill="#ed975d"/>
      <path id="Path_105963" data-name="Path 105963" d="M2467.706,886.374s-21.748-5.376-18.192-18.867,3.144-23.273,17.179-20.411,15.366,8.718,15.275,13.51S2473.455,887.425,2467.706,886.374Z" transform="translate(-2342.399 -818.197)" fill="#ffb27d"/>
      <path id="Path_105964" data-name="Path 105964" d="M2470.63,847.33s-10.118,14.255-19.836,14.185-13.02-3.552-13.02-3.552a26.657,26.657,0,0,0,12.458-12.991S2468.152,838.614,2470.63,847.33Z" transform="translate(-2336.386 -816.15)" fill="#c94c43"/>
      <path id="Path_105965" data-name="Path 105965" d="M2503.822,852.516s3.492,4.705,3.662,8.426-1.217,10.919.909,11.224c0,0,7.313-9.573,3.905-16.987C2508.683,847.32,2503.822,852.516,2503.822,852.516Z" transform="translate(-2371.388 -820.441)" fill="#c94c43"/>
      <path id="Path_105966" data-name="Path 105966" d="M2481.036,850.58s-8.612,15.453-21.5,17.72c0,0,14.176-7.142,18.046-17.823S2481.036,850.58,2481.036,850.58Z" transform="translate(-2347.921 -817.751)" fill="#c94c43"/>
      <path id="Path_105967" data-name="Path 105967" d="M2481.438,912.8s.271,2.054,1.581,2.54,4.789,1.366,5.141,1.148a17.518,17.518,0,0,0,1.656-1.82S2484.336,912.564,2481.438,912.8Z" transform="translate(-2359.526 -853.27)" fill="#fff"/>
      <path id="Path_105968" data-name="Path 105968" d="M2421.609,1274.937q-.42,1.733-.825,3.428c-1.641,6.811-3.167,13.131-4.13,18.42-1.246,6.879-1.544,12,.1,14.148,4.235,5.551,3.158,35.245,1.765,56.63-.825,12.723-1.765,22.5-1.765,22.5l-7.685,7.915s-2.434-12.631-5.5-27.957c-4.125-20.6-9.4-46.061-11.481-52.294-1.65-4.946-4.052-26.051-6.174-47.6q-.159-1.615-.316-3.235c-.366-3.768-.719-7.521-1.059-11.187a190.605,190.605,0,0,1,.853-39.581s10-8.231,22.875-9.341c7.585-.66,14.721,1.756,18.245,11.078C2431.637,1231.424,2426.435,1254.84,2421.609,1274.937Z" transform="translate(-2307.815 -1009.021)" fill="#ffb27d"/>
      <path id="Path_105969" data-name="Path 105969" d="M2429.429,1274.936c-10.532-7.606-25.349-21.141-30.726-43.328-1.029-11.03,7.669-21.512,17.377-24.824,7.587-.661,14.721,1.753,18.246,11.075C2439.458,1231.423,2434.258,1254.842,2429.429,1274.936Z" transform="translate(-2315.637 -1009.021)" fill="#ed975d"/>
      <path id="Path_105970" data-name="Path 105970" d="M2541.327,1066.8l51.757,13.369v6.043s-51.506-.6-54.828-6.342S2541.327,1066.8,2541.327,1066.8Z" transform="translate(-2389.129 -934.889)" fill="#ffb27d"/>
      <path id="Path_105971" data-name="Path 105971" d="M2535.5,1326.141l-2.42,9.986s-10.693-5.523-24.263-12.663c-21.146-11.137-49.288-26.211-54.806-30.442-3.634-2.791-8.442-17.943-12.892-35.08-6.632-25.551-12.475-55.516-12.475-55.516s9.813-37.747,36.088-14.643c15.721,13.823,13.278,40.465,11.555,61.186-1.146,13.9-1.971,25.138,3.245,28.049,7.484,4.18,25.629,19.447,38.453,34.388a87.91,87.91,0,0,1,11,15.422Z" transform="translate(-2331.549 -995.038)" fill="#ffb27d"/>
      <path id="Path_105972" data-name="Path 105972" d="M2655.975,1089s9.5-4.677,13.271-5.13,10.116-.6,10.116,0-6.8,4.825-8.606,5.13-5.285,2.872-4.228,3.174,6.644-.981,6.719,0-3.4,1.586-4,2.341-2.718,1.661-6.115,1.208-7.155-.679-7.155-.679Z" transform="translate(-2452.02 -943.728)" fill="#ffb27d"/>
      <path id="Path_105973" data-name="Path 105973" d="M2510.957,1162.017c-33.421,48.124-119.644,53.518-119.644,53.518-14-51.093-8.264-180.285-5.06-228.307-.2-8.387.128-15.478,1.5-18.2,2.145-4.254,13.8-11.627,17.985-15.29a7.236,7.236,0,0,1,1.805-.458c.628,2.2,8.4,28.567,9.167,28.017s13.872-25.592,15.253-28.553c1.407.041,2.369.073,2.649.092,2.31.11,14.781,2.608,15.825,4.62.367.7,3.946,10.189,8.442,22.751a.169.169,0,0,0,.005.032c8.434,23.562,20.8,19.139,25.711,26.12,3.089,4.381,1.76,12.562-3.969,19.63-.486.6-1,1.192-1.549,1.769-4.358,4.611-10.267,7.338-19.882,5.922-2.393-.353-7.232-2.663-11.178-6.078C2457.485,1063.148,2510.957,1162.017,2510.957,1162.017Z" transform="translate(-2307.003 -874.446)" fill="url(#linear-gradient-9)"/>
      <path id="Path_105974" data-name="Path 105974" d="M2432.1,950.507l-4.527,2.587s12.354,34.946,12.964,34.793,19.168-36.476,19.168-36.476l-3.786-1.579-15.229,29.919Z" transform="translate(-2330.98 -872.906)" fill="#f99746"/>
      <path id="Path_105975" data-name="Path 105975" d="M2471.8,843.439s-15.836-8.881-42,6.734l1.127-4.292a14.245,14.245,0,0,1,7.048-8.963c3.947-2.1,10.042-4.164,18.728-4.094a16.011,16.011,0,0,1,14.132,8.727Z" transform="translate(-2332.162 -810.897)" fill="#1c468a"/>
      <g id="Group_44824" data-name="Group 44824" transform="translate(55.342 19.57)">
        <g id="Group_44823" data-name="Group 44823" transform="translate(4.989)">
          <path id="Path_105976" data-name="Path 105976" d="M2350.821,852.172l-.391-1.318c14.025-4.159,17.033-18.725,17.548-22.12a1.106,1.106,0,0,1,.81-.9h0a.608.608,0,0,1,.757.687C2368.9,832.46,2365.449,847.835,2350.821,852.172Z" transform="translate(-2350.43 -827.811)" fill="#efcbab"/>
        </g>
        <path id="Path_105977" data-name="Path 105977" d="M2348.327,876.833h-1.866l.716,2.263,1.541-.945Z" transform="translate(-2343.338 -853.79)" fill="#d8a987"/>
        <path id="Path_105978" data-name="Path 105978" d="M2342.94,876.833s-2.577.716-3.123,0c0,0-.057,2.177.86,2.75a7.17,7.17,0,0,0,2.979-.487Z" transform="translate(-2339.816 -853.79)" fill="#efcbab"/>
      </g>
      <path id="Path_105979" data-name="Path 105979" d="M2439.169,957.961s4.137,7.6,20.606.677l-12.939,25.422Z" transform="translate(-2337.126 -877.213)" fill="#fff"/>
      <path id="Path_105980" data-name="Path 105980" d="M2369.554,956.766s-2.15,72.346-19.992,86.366a10.805,10.805,0,0,1-4.015,2.053c-9.015,2.3-15.564-3.07-20-10.509-6.164-10.336-8.25-24.667-7.2-27.967,1.989-6.288,6.572,4.831,16.2,1.778s12.223-41.826,18.942-47.482C2355.245,959.534,2369.554,956.766,2369.554,956.766Z" transform="translate(-2272.961 -876.58)" fill="url(#linear-gradient-9)"/>
      <g id="Group_44825" data-name="Group 44825" transform="translate(0 66.201)">
        <path id="Path_105981" data-name="Path 105981" d="M2231.6,992.481a52.093,52.093,0,0,1-5.251-3.319,21.816,21.816,0,0,1-3.171-2.754,6.56,6.56,0,0,1-1.1-1.567s21.786-26.221,23.514-29.306,18.168-28.521,18.168-28.521a41.642,41.642,0,0,1,4.427,2.508c.895.584,1.853,1.256,2.773,1.995a17.284,17.284,0,0,1,4.284,4.711s-23.929,24.249-25.617,27.746S2231.6,992.481,2231.6,992.481Z" transform="translate(-2222.082 -927.015)" fill="#efcbab"/>
        <path id="Path_105982" data-name="Path 105982" d="M2226.352,989.162a21.816,21.816,0,0,1-3.171-2.754,6.56,6.56,0,0,1-1.1-1.567s21.786-26.221,23.514-29.306,18.168-28.521,18.168-28.521a41.642,41.642,0,0,1,4.427,2.508c.895.584,1.853,1.256,2.773,1.995-6.715,6.856-24.853,25.549-26.4,28.754C2243.059,963.389,2231.245,981.641,2226.352,989.162Z" transform="translate(-2222.082 -927.015)" fill="#ddb08e"/>
        <path id="Path_105983" data-name="Path 105983" d="M2270.766,976.8s-6.425,6.234-7.162,10.485l6.719,5.392s5.878-5.758,7.743-10.018Z" transform="translate(-2244.087 -953.398)" fill="#c94c43"/>
      </g>
      <path id="Path_105984" data-name="Path 105984" d="M2277.764,999.338s.459-4.23-.515-5.72-1.061-5.592-1.968-5.156-.324,3.8-.9,5.422-1.414,9.177.9,10.614S2277.764,999.338,2277.764,999.338Z" transform="translate(-2249.464 -893.36)" fill="#ffb27d"/>
      <path id="Path_105985" data-name="Path 105985" d="M2262.846,989s-2.674-.413-3.648,1.363-2.185,4.662-.343,5.805S2262.846,989,2262.846,989Z" transform="translate(-2241.062 -893.641)" fill="#ffb27d"/>
      <path id="Path_105986" data-name="Path 105986" d="M2440.724,1548.94c-.825,12.723-1.764,22.5-1.764,22.5l-7.686,7.915s-2.434-12.631-5.5-27.957C2425.77,1551.4,2434.386,1554.4,2440.724,1548.94Z" transform="translate(-2330.025 -1190.398)" fill="#fff"/>
      <path id="Path_105987" data-name="Path 105987" d="M2433.986,1605.309l-4.147,2.245c-1.508.533-2.751.686-4.276,1.271a8.839,8.839,0,0,0-4.026,2.946c-1.17,4.756-2.831,4.454-2.831,4.454l-16.661.157c-.785-.392.546-3.756,1.185-4.384,1.575-1.552,6.289-.771,8.008-5.651.969-2.742,5.75-11.265,5.75-11.265l.034-.03c.161-.084,1.048-.261,5.862.74,2.487.515,3.52-4.534,3.52-4.534a4.719,4.719,0,0,1,1.655.778,4.975,4.975,0,0,1,1.842,2.5c.6,1.73,3.042,4.221,4.8,5.85,1.066.986,1.875,1.656,1.875,1.656S2437.312,1602.932,2433.986,1605.309Z" transform="translate(-2317.324 -1212.824)" fill="#233862"/>
      <path id="Path_105988" data-name="Path 105988" d="M2625.891,1473.953l-2.42,9.986s-10.692-5.523-24.263-12.663a22.72,22.72,0,0,0,9.167-12.058,87.9,87.9,0,0,1,11,15.422Z" transform="translate(-2421.936 -1142.85)" fill="#fff"/>
      <path id="Path_105989" data-name="Path 105989" d="M2662.467,1483.315a.59.59,0,0,1-.062-.015c-.314-.078-1.754-.553-2.708-2.844-.629-1.508-.819-2.746-1.4-4.238l-2.364-4.08c-2.472-3.256-3.34-2.493-3.34-2.493s-.646.829-1.6,1.922c-1.578,1.8-4,4.32-5.708,4.966a4.976,4.976,0,0,0-2.445,1.914,4.724,4.724,0,0,0-.73,1.677s5.078.885,4.635,3.387c-.862,4.842-.658,5.723-.57,5.881l.03.033s8.658,4.532,11.427,5.422c4.926,1.578,7.5,4.927,9.1,6.457a2.851,2.851,0,0,0,2.424.764c1.3-.2,2.983-.622,3.353-1.419Z" transform="translate(-2444.674 -1148.335)" fill="#233862"/>
      <path id="Path_105990" data-name="Path 105990" d="M2448.207,1058.155a2.5,2.5,0,1,1,2.5,2.5A2.5,2.5,0,0,1,2448.207,1058.155Z" transform="translate(-2341.915 -928.984)" fill="#233862"/>
      <path id="Path_105991" data-name="Path 105991" d="M2448.207,1097.644a2.5,2.5,0,1,1,2.5,2.5A2.5,2.5,0,0,1,2448.207,1097.644Z" transform="translate(-2341.915 -949.912)" fill="#233862"/>
      <path id="Path_105992" data-name="Path 105992" d="M2546.841,1082.2c-.486.6-1,1.192-1.549,1.769-4.359,4.611-10.266,7.338-19.882,5.922-2.393-.353-7.232-2.663-11.178-6.078,0,0-7.933-21.669-6.865-24.726s16.348,20.7,29.029,21.807A92.937,92.937,0,0,1,2546.841,1082.2Z" transform="translate(-2373.213 -930.659)" fill="url(#linear-gradient-9)"/>
      <path id="Path_105993" data-name="Path 105993" d="M2361.748,1072.717l-3.776,31.862a10.8,10.8,0,0,1-4.015,2.053c-9.015,2.3-15.565-3.07-20-10.509,4.619.641,15.826,1.641,18.273-3.241C2355.332,1086.7,2361.748,1072.717,2361.748,1072.717Z" transform="translate(-2281.372 -938.027)" fill="url(#linear-gradient-9)"/>
    </g>
  </g>
</svg>
